<?xml version="1.0" encoding="UTF-8"?><svg width="105" height="200" version="1.1" viewBox="0 0 27.78 52.92" xmlns="http://www.w3.org/2000/svg"><g transform="translate(-79.01 -71.74)"><g transform="matrix(1.933 0 0 1.933 -73.74 -66.95)"><g transform="matrix(.1908 0 0 -.1908 79.01 71.85)"><path d="m0 0h75.13m-75.13-5.101h75.13m-75.13-5.108h75.13m-75.13-5.015h75.13m-75.13-5.102h75.13m-75.13-5.108h75.13m-75.13-5.015h75.13m-75.13-5.101h75.13m-75.13-5.108h75.13m-75.13-5.015h75.13m-75.13-5.102h75.13m-75.13-5.108h75.13m-75.13-5.015h75.13m-75.13-5.101h75.13m-75.13-5.108h75.13m-75.13-5.101h75.13m-75.13-5.016h75.13m-75.13-5.108h75.13m-75.13-5.101h75.13m-75.13-5.015h75.13m-75.13-5.108h75.13m-75.13-5.101h75.13m-75.13-5.015h75.13m-75.13-5.109h75.13m-75.13-5.101h75.13m-75.13-5.015h75.13m-75.13-5.108h75.13m-75.13-5.101h75.13m-75.13-5.109h75.13" fill="none" stroke="#231f20" stroke-miterlimit="10" stroke-width="1.219"/></g><g transform="matrix(.1908 0 0 -.1908 82.5 81.69)"><path d="m0 0s-0.094-25.48 0-26.99c1.692-4.326 5.36-3.104 5.83 0.94 0 0 0.094 23.88 0 26.99-2.633 4.138-5.172 1.787-5.83-0.94m31.12-4.89s-0.094-25.48 0-26.99c1.693-4.325 5.36-3.102 5.83 0.941 0 0 0.094 23.88 0 26.99-2.633 4.137-5.172 1.786-5.83-0.941m-24.95 38.46h14.89v-24.82c7.523 2.821 14.1-1.128 15.61-4.514v4.702h15.99s-6e-3 -62.28-8e-3 -63.48c2.634-24.53-38.65-33.75-36.86 0.013h14.76c-0.47-2.351-0.47-8.839 3.706-8.573 1.685-0.462 3.816 1.426 3.911 8.573-0.095 1.974-0.189 16.46-0.189 16.46-2.445-4.984-13.16-13.26-20.59-1.317-3.385 0.188-10.25 0-10.25 0l-0.377 7.053c-2.351-6.395-10.16-11.76-17.49-5.36-1.693 2.633-3.761 2.444-4.137 9.591-0.377 3.573 0 34.98 0 34.98 0.188 6.018 13.15 12.41 21.04 2.256 0.189 7.899-0.017 24.45-0.017 24.45" fill="#ff1721"/></g><g transform="matrix(.1908 0 0 -.1908 82.5 81.69)"><path d="m0 0s-0.094-25.48 0-26.99c1.692-4.326 5.36-3.104 5.83 0.94 0 0 0.094 23.88 0 26.99-2.633 4.138-5.172 1.787-5.83-0.94zm31.12-4.89s-0.094-25.48 0-26.99c1.693-4.325 5.36-3.102 5.83 0.941 0 0 0.094 23.88 0 26.99-2.633 4.137-5.172 1.786-5.83-0.941zm-24.95 38.46h14.89v-24.82c7.523 2.821 14.1-1.128 15.61-4.514v4.702h15.99s-6e-3 -62.28-8e-3 -63.48c2.634-24.53-38.65-33.75-36.86 0.013h14.76c-0.47-2.351-0.47-8.839 3.706-8.573 1.685-0.462 3.816 1.426 3.911 8.573-0.095 1.974-0.189 16.46-0.189 16.46-2.445-4.984-13.16-13.26-20.59-1.317-3.385 0.188-10.25 0-10.25 0l-0.377 7.053c-2.351-6.395-10.16-11.76-17.49-5.36-1.693 2.633-3.761 2.444-4.137 9.591-0.377 3.573 0 34.98 0 34.98 0.188 6.018 13.15 12.41 21.04 2.256 0.189 7.899-0.017 24.45-0.017 24.45z" fill="none" stroke="#231f20" stroke-width="1.505"/></g></g></g></svg>